<mxfile host="app.diagrams.net" agent="Mozilla/5.0 (Windows NT 10.0; Win64; x64) AppleWebKit/537.36 (KHTML, like Gecko) Chrome/139.0.0.0 Safari/537.36 Edg/139.0.0.0" version="28.1.2">
  <diagram name="Page-1" id="74e2e168-ea6b-b213-b513-2b3c1d86103e">
    <mxGraphModel dx="1621" dy="899" grid="1" gridSize="10" guides="1" tooltips="1" connect="1" arrows="1" fold="1" page="1" pageScale="1" pageWidth="1100" pageHeight="850" background="none" math="0" shadow="0">
      <root>
        <mxCell id="0" />
        <mxCell id="1" parent="0" />
        <mxCell id="aKuSgMPyaAPeaiffdltA-1" value="" style="rounded=0;whiteSpace=wrap;html=1;" vertex="1" parent="1">
          <mxGeometry x="32" y="36" width="120" height="740" as="geometry" />
        </mxCell>
        <mxCell id="aKuSgMPyaAPeaiffdltA-2" value="信息安全保系" style="rounded=0;whiteSpace=wrap;html=1;" vertex="1" parent="1">
          <mxGeometry x="42" y="56" width="90" height="40" as="geometry" />
        </mxCell>
        <mxCell id="aKuSgMPyaAPeaiffdltA-3" value="物理安全" style="rounded=0;whiteSpace=wrap;html=1;" vertex="1" parent="1">
          <mxGeometry x="42" y="176" width="90" height="40" as="geometry" />
        </mxCell>
        <mxCell id="aKuSgMPyaAPeaiffdltA-4" value="网络安全&lt;span style=&quot;color: rgba(0, 0, 0, 0); font-family: monospace; font-size: 0px; text-align: start; text-wrap-mode: nowrap;&quot;&gt;%3CmxGraphModel%3E%3Croot%3E%3CmxCell%20id%3D%220%22%2F%3E%3CmxCell%20id%3D%221%22%20parent%3D%220%22%2F%3E%3CmxCell%20id%3D%222%22%20value%3D%22%E7%89%A9%E7%90%86%E5%AE%89%E5%85%A8%22%20style%3D%22rounded%3D0%3BwhiteSpace%3Dwrap%3Bhtml%3D1%3B%22%20vertex%3D%221%22%20parent%3D%221%22%3E%3CmxGeometry%20x%3D%2250%22%20y%3D%22130%22%20width%3D%2290%22%20height%3D%2240%22%20as%3D%22geometry%22%2F%3E%3C%2FmxCell%3E%3C%2Froot%3E%3C%2FmxGraphModel%3E&lt;/span&gt;" style="rounded=0;whiteSpace=wrap;html=1;" vertex="1" parent="1">
          <mxGeometry x="42" y="296" width="90" height="40" as="geometry" />
        </mxCell>
        <mxCell id="aKuSgMPyaAPeaiffdltA-5" value="应用安全" style="rounded=0;whiteSpace=wrap;html=1;" vertex="1" parent="1">
          <mxGeometry x="42" y="426" width="90" height="40" as="geometry" />
        </mxCell>
        <mxCell id="aKuSgMPyaAPeaiffdltA-6" value="数据安全" style="rounded=0;whiteSpace=wrap;html=1;" vertex="1" parent="1">
          <mxGeometry x="42" y="566" width="90" height="40" as="geometry" />
        </mxCell>
        <mxCell id="aKuSgMPyaAPeaiffdltA-7" value="" style="rounded=0;whiteSpace=wrap;html=1;" vertex="1" parent="1">
          <mxGeometry x="182" y="36" width="120" height="740" as="geometry" />
        </mxCell>
        <mxCell id="aKuSgMPyaAPeaiffdltA-8" value="标准规范体系" style="rounded=0;whiteSpace=wrap;html=1;" vertex="1" parent="1">
          <mxGeometry x="197" y="56" width="90" height="40" as="geometry" />
        </mxCell>
        <mxCell id="aKuSgMPyaAPeaiffdltA-9" value="技术应用标准" style="rounded=0;whiteSpace=wrap;html=1;" vertex="1" parent="1">
          <mxGeometry x="197" y="176" width="90" height="40" as="geometry" />
        </mxCell>
        <mxCell id="aKuSgMPyaAPeaiffdltA-10" value="软件开发标准" style="rounded=0;whiteSpace=wrap;html=1;" vertex="1" parent="1">
          <mxGeometry x="197" y="296" width="90" height="40" as="geometry" />
        </mxCell>
        <mxCell id="aKuSgMPyaAPeaiffdltA-11" value="数据应用标准" style="rounded=0;whiteSpace=wrap;html=1;" vertex="1" parent="1">
          <mxGeometry x="197" y="424" width="90" height="40" as="geometry" />
        </mxCell>
        <mxCell id="aKuSgMPyaAPeaiffdltA-12" value="用户层" style="rounded=0;whiteSpace=wrap;html=1;" vertex="1" parent="1">
          <mxGeometry x="342" y="36" width="120" height="60" as="geometry" />
        </mxCell>
        <mxCell id="aKuSgMPyaAPeaiffdltA-13" value="" style="rounded=0;whiteSpace=wrap;html=1;" vertex="1" parent="1">
          <mxGeometry x="482" y="36" width="590" height="60" as="geometry" />
        </mxCell>
        <mxCell id="aKuSgMPyaAPeaiffdltA-14" value="陕西省地市市场监督管理局" style="rounded=0;whiteSpace=wrap;html=1;" vertex="1" parent="1">
          <mxGeometry x="497" y="46" width="90" height="40" as="geometry" />
        </mxCell>
        <mxCell id="aKuSgMPyaAPeaiffdltA-15" value="社会公众" style="rounded=0;whiteSpace=wrap;html=1;" vertex="1" parent="1">
          <mxGeometry x="642" y="46" width="90" height="40" as="geometry" />
        </mxCell>
        <mxCell id="aKuSgMPyaAPeaiffdltA-16" value="政务服务网企业用户" style="rounded=0;whiteSpace=wrap;html=1;" vertex="1" parent="1">
          <mxGeometry x="812" y="46" width="90" height="40" as="geometry" />
        </mxCell>
        <mxCell id="aKuSgMPyaAPeaiffdltA-17" value="展示层" style="rounded=0;whiteSpace=wrap;html=1;" vertex="1" parent="1">
          <mxGeometry x="342" y="126" width="120" height="60" as="geometry" />
        </mxCell>
        <mxCell id="aKuSgMPyaAPeaiffdltA-18" value="" style="rounded=0;whiteSpace=wrap;html=1;" vertex="1" parent="1">
          <mxGeometry x="482" y="126" width="590" height="60" as="geometry" />
        </mxCell>
        <mxCell id="aKuSgMPyaAPeaiffdltA-19" value="桌面终端" style="rounded=0;whiteSpace=wrap;html=1;" vertex="1" parent="1">
          <mxGeometry x="497" y="136" width="90" height="40" as="geometry" />
        </mxCell>
        <mxCell id="aKuSgMPyaAPeaiffdltA-20" value="移动端" style="rounded=0;whiteSpace=wrap;html=1;" vertex="1" parent="1">
          <mxGeometry x="642" y="136" width="90" height="40" as="geometry" />
        </mxCell>
        <mxCell id="aKuSgMPyaAPeaiffdltA-22" value="业务应用层" style="rounded=0;whiteSpace=wrap;html=1;" vertex="1" parent="1">
          <mxGeometry x="342" y="226" width="120" height="140" as="geometry" />
        </mxCell>
        <mxCell id="aKuSgMPyaAPeaiffdltA-23" value="" style="rounded=0;whiteSpace=wrap;html=1;" vertex="1" parent="1">
          <mxGeometry x="482" y="226" width="590" height="140" as="geometry" />
        </mxCell>
        <mxCell id="aKuSgMPyaAPeaiffdltA-24" value="食品安全监管综合业务平台" style="rounded=0;whiteSpace=wrap;html=1;" vertex="1" parent="1">
          <mxGeometry x="497" y="236" width="90" height="40" as="geometry" />
        </mxCell>
        <mxCell id="aKuSgMPyaAPeaiffdltA-25" value="社会公众" style="rounded=0;whiteSpace=wrap;html=1;" vertex="1" parent="1">
          <mxGeometry x="497" y="306" width="90" height="40" as="geometry" />
        </mxCell>
        <mxCell id="aKuSgMPyaAPeaiffdltA-26" value="小程序" style="rounded=0;whiteSpace=wrap;html=1;" vertex="1" parent="1">
          <mxGeometry x="792" y="136" width="90" height="40" as="geometry" />
        </mxCell>
        <mxCell id="aKuSgMPyaAPeaiffdltA-27" value="监管档案" style="rounded=0;whiteSpace=wrap;html=1;" vertex="1" parent="1">
          <mxGeometry x="612" y="241" width="70" height="30" as="geometry" />
        </mxCell>
        <mxCell id="aKuSgMPyaAPeaiffdltA-28" value="行政许可" style="rounded=0;whiteSpace=wrap;html=1;" vertex="1" parent="1">
          <mxGeometry x="712" y="241" width="70" height="30" as="geometry" />
        </mxCell>
        <mxCell id="aKuSgMPyaAPeaiffdltA-29" value="日常检查" style="rounded=0;whiteSpace=wrap;html=1;" vertex="1" parent="1">
          <mxGeometry x="802" y="241" width="70" height="30" as="geometry" />
        </mxCell>
        <mxCell id="aKuSgMPyaAPeaiffdltA-30" value="...." style="rounded=0;whiteSpace=wrap;html=1;" vertex="1" parent="1">
          <mxGeometry x="902" y="241" width="70" height="30" as="geometry" />
        </mxCell>
        <mxCell id="aKuSgMPyaAPeaiffdltA-31" value="企业申报" style="rounded=0;whiteSpace=wrap;html=1;" vertex="1" parent="1">
          <mxGeometry x="612" y="311" width="70" height="30" as="geometry" />
        </mxCell>
        <mxCell id="aKuSgMPyaAPeaiffdltA-32" value="公开公式" style="rounded=0;whiteSpace=wrap;html=1;" vertex="1" parent="1">
          <mxGeometry x="712" y="311" width="70" height="30" as="geometry" />
        </mxCell>
        <mxCell id="aKuSgMPyaAPeaiffdltA-33" value="应用支持" style="rounded=0;whiteSpace=wrap;html=1;" vertex="1" parent="1">
          <mxGeometry x="342" y="386" width="120" height="110" as="geometry" />
        </mxCell>
        <mxCell id="aKuSgMPyaAPeaiffdltA-34" value="" style="rounded=0;whiteSpace=wrap;html=1;" vertex="1" parent="1">
          <mxGeometry x="482" y="386" width="590" height="110" as="geometry" />
        </mxCell>
        <mxCell id="aKuSgMPyaAPeaiffdltA-35" value="" style="rounded=0;whiteSpace=wrap;html=1;dashed=1;" vertex="1" parent="1">
          <mxGeometry x="497" y="399" width="210" height="77" as="geometry" />
        </mxCell>
        <mxCell id="aKuSgMPyaAPeaiffdltA-37" value="统一认证" style="rounded=0;whiteSpace=wrap;html=1;dashed=1;" vertex="1" parent="1">
          <mxGeometry x="502" y="429" width="60" height="30" as="geometry" />
        </mxCell>
        <mxCell id="aKuSgMPyaAPeaiffdltA-38" value="统一密码" style="rounded=0;whiteSpace=wrap;html=1;dashed=1;" vertex="1" parent="1">
          <mxGeometry x="572" y="429" width="60" height="30" as="geometry" />
        </mxCell>
        <mxCell id="aKuSgMPyaAPeaiffdltA-39" value="统一消息" style="rounded=0;whiteSpace=wrap;html=1;dashed=1;" vertex="1" parent="1">
          <mxGeometry x="642" y="429" width="60" height="30" as="geometry" />
        </mxCell>
        <mxCell id="aKuSgMPyaAPeaiffdltA-40" value="公共应用支持" style="rounded=0;whiteSpace=wrap;html=1;dashed=1;strokeColor=none;" vertex="1" parent="1">
          <mxGeometry x="552" y="399" width="90" height="30" as="geometry" />
        </mxCell>
        <mxCell id="aKuSgMPyaAPeaiffdltA-41" value="" style="rounded=0;whiteSpace=wrap;html=1;dashed=1;" vertex="1" parent="1">
          <mxGeometry x="752" y="399" width="290" height="77" as="geometry" />
        </mxCell>
        <mxCell id="aKuSgMPyaAPeaiffdltA-42" value="内部应用支持" style="rounded=0;whiteSpace=wrap;html=1;dashed=1;strokeColor=none;" vertex="1" parent="1">
          <mxGeometry x="852" y="402" width="90" height="30" as="geometry" />
        </mxCell>
        <mxCell id="aKuSgMPyaAPeaiffdltA-43" value="对外接口服务" style="rounded=0;whiteSpace=wrap;html=1;dashed=1;" vertex="1" parent="1">
          <mxGeometry x="762" y="433" width="60" height="30" as="geometry" />
        </mxCell>
        <mxCell id="aKuSgMPyaAPeaiffdltA-44" value="内部通知服务" style="rounded=0;whiteSpace=wrap;html=1;dashed=1;" vertex="1" parent="1">
          <mxGeometry x="862" y="430" width="60" height="33" as="geometry" />
        </mxCell>
        <mxCell id="aKuSgMPyaAPeaiffdltA-45" value="流程引擎" style="rounded=0;whiteSpace=wrap;html=1;dashed=1;" vertex="1" parent="1">
          <mxGeometry x="952" y="433" width="60" height="30" as="geometry" />
        </mxCell>
        <mxCell id="aKuSgMPyaAPeaiffdltA-46" value="数据资源层" style="rounded=0;whiteSpace=wrap;html=1;" vertex="1" parent="1">
          <mxGeometry x="342" y="516" width="120" height="150" as="geometry" />
        </mxCell>
        <mxCell id="aKuSgMPyaAPeaiffdltA-58" value="数据库管理" style="rounded=0;whiteSpace=wrap;html=1;" vertex="1" parent="1">
          <mxGeometry x="992" y="516" width="80" height="150" as="geometry" />
        </mxCell>
        <mxCell id="aKuSgMPyaAPeaiffdltA-59" value="数据处理" style="rounded=0;whiteSpace=wrap;html=1;" vertex="1" parent="1">
          <mxGeometry x="482" y="546" width="100" height="90" as="geometry" />
        </mxCell>
        <mxCell id="aKuSgMPyaAPeaiffdltA-60" value="数据共享交换" style="rounded=0;whiteSpace=wrap;html=1;" vertex="1" parent="1">
          <mxGeometry x="482" y="636" width="510" height="30" as="geometry" />
        </mxCell>
        <mxCell id="aKuSgMPyaAPeaiffdltA-61" value="" style="rounded=0;whiteSpace=wrap;html=1;" vertex="1" parent="1">
          <mxGeometry x="582" y="546" width="410" height="90" as="geometry" />
        </mxCell>
        <mxCell id="aKuSgMPyaAPeaiffdltA-62" value="原始库" style="shape=cylinder3;whiteSpace=wrap;html=1;boundedLbl=1;backgroundOutline=1;size=15;" vertex="1" parent="1">
          <mxGeometry x="592" y="576" width="65" height="50" as="geometry" />
        </mxCell>
        <mxCell id="aKuSgMPyaAPeaiffdltA-63" value="资源库" style="shape=cylinder3;whiteSpace=wrap;html=1;boundedLbl=1;backgroundOutline=1;size=15;" vertex="1" parent="1">
          <mxGeometry x="697" y="576" width="65" height="50" as="geometry" />
        </mxCell>
        <mxCell id="aKuSgMPyaAPeaiffdltA-64" value="主题库" style="shape=cylinder3;whiteSpace=wrap;html=1;boundedLbl=1;backgroundOutline=1;size=15;" vertex="1" parent="1">
          <mxGeometry x="807" y="576" width="65" height="50" as="geometry" />
        </mxCell>
        <mxCell id="aKuSgMPyaAPeaiffdltA-65" value="专题库" style="shape=cylinder3;whiteSpace=wrap;html=1;boundedLbl=1;backgroundOutline=1;size=15;" vertex="1" parent="1">
          <mxGeometry x="912" y="576" width="65" height="50" as="geometry" />
        </mxCell>
        <mxCell id="aKuSgMPyaAPeaiffdltA-66" value="数据资源库" style="rounded=0;whiteSpace=wrap;html=1;dashed=1;strokeColor=none;" vertex="1" parent="1">
          <mxGeometry x="742" y="546" width="90" height="30" as="geometry" />
        </mxCell>
        <mxCell id="aKuSgMPyaAPeaiffdltA-67" value="数据库服务" style="rounded=0;whiteSpace=wrap;html=1;" vertex="1" parent="1">
          <mxGeometry x="482" y="516" width="510" height="30" as="geometry" />
        </mxCell>
        <mxCell id="aKuSgMPyaAPeaiffdltA-68" value="基础设置" style="rounded=0;whiteSpace=wrap;html=1;" vertex="1" parent="1">
          <mxGeometry x="342" y="686" width="120" height="90" as="geometry" />
        </mxCell>
        <mxCell id="aKuSgMPyaAPeaiffdltA-69" value="省信息化中心政务云基础设施" style="rounded=0;whiteSpace=wrap;html=1;" vertex="1" parent="1">
          <mxGeometry x="482" y="686" width="590" height="30" as="geometry" />
        </mxCell>
        <mxCell id="aKuSgMPyaAPeaiffdltA-71" value="" style="rounded=0;whiteSpace=wrap;html=1;" vertex="1" parent="1">
          <mxGeometry x="482" y="716" width="590" height="60" as="geometry" />
        </mxCell>
        <mxCell id="aKuSgMPyaAPeaiffdltA-72" value="计算资源池" style="rounded=0;whiteSpace=wrap;html=1;" vertex="1" parent="1">
          <mxGeometry x="502" y="726" width="90" height="40" as="geometry" />
        </mxCell>
        <mxCell id="aKuSgMPyaAPeaiffdltA-73" value="存储资源池" style="rounded=0;whiteSpace=wrap;html=1;" vertex="1" parent="1">
          <mxGeometry x="712" y="726" width="90" height="40" as="geometry" />
        </mxCell>
        <mxCell id="aKuSgMPyaAPeaiffdltA-74" value="网络资源池" style="rounded=0;whiteSpace=wrap;html=1;" vertex="1" parent="1">
          <mxGeometry x="912" y="726" width="90" height="40" as="geometry" />
        </mxCell>
      </root>
    </mxGraphModel>
  </diagram>
</mxfile>
